<svg width="36" height="36" viewBox="0 0 36 36" fill="none" xmlns="http://www.w3.org/2000/svg">
<g clip-path="url(#clip0_77_20)">
<path d="M18.8415 12.6585L23.781 17.598L22.7205 18.6585L18.0015 13.9395V25.5H16.5015V13.9395L11.7825 18.6585L10.722 17.598L15.6615 12.6585C16.539 11.7825 17.9655 11.7825 18.843 12.6585H18.8415ZM36 21C36 26.7885 31.2885 31.5 25.5 31.5H7.125C3.1965 31.5 0 28.3035 0 24.375C0 21.9345 1.2405 19.6875 3.2715 18.381C3.0915 17.52 3 16.6365 3 15.75C3 8.7195 8.7195 3 15.75 3C20.8815 3 25.4295 6.0015 27.4545 10.6815C32.3565 11.6055 36 15.966 36 21ZM34.5 21C34.5 16.5615 31.194 12.7335 26.811 12.0945L26.3805 12.0315L26.223 11.6265C24.5145 7.296 20.4045 4.4985 15.7515 4.4985C9.5475 4.4985 4.5015 9.5445 4.5015 15.7485C4.5015 16.701 4.62 17.646 4.8555 18.5595L5.0025 19.1295L4.4835 19.4085C2.6445 20.3895 1.503 22.2945 1.503 24.375C1.503 27.4755 4.026 30 7.128 30H25.503C30.4665 30 34.503 25.9635 34.503 21H34.5Z" fill="white"/>
</g>
<defs>
<clipPath id="clip0_77_20">
<rect width="36" height="36" fill="white"/>
</clipPath>
</defs>
</svg>
