<svg width="48" height="48" viewBox="0 0 48 48" fill="none" xmlns="http://www.w3.org/2000/svg">
<path d="M44 8C44 6.896 44.896 6 46 6C47.104 6 48 6.896 48 8C48 9.104 47.104 10 46 10C44.896 10 44 9.104 44 8ZM7.524 22.82C8.998 21.726 9.954 19.974 9.954 18C9.954 14.692 7.262 12 3.954 12H0V14H3.954C6.16 14 7.954 15.794 7.954 18C7.954 20.206 6.16 22 3.954 22H0V24H4C7.308 24 10 26.692 10 30C10 33.308 7.308 36 4 36H0V38H4C8.412 38 12 34.412 12 30C12 26.852 10.172 24.124 7.524 22.82ZM30 30C30 34.412 26.412 38 22 38C17.588 38 14 34.412 14 30V21.166C14 16.112 18.112 12 23.166 12H28V14H23.166C19.214 14 16 17.214 16 21.166V24.714C17.468 23.05 19.612 22 22 22C26.412 22 30 25.588 30 30ZM28 30C28 26.692 25.308 24 22 24C18.692 24 16 26.692 16 30C16 33.308 18.692 36 22 36C25.308 36 28 33.308 28 30ZM48 20V30C48 34.412 44.412 38 40 38C35.588 38 32 34.412 32 30V20C32 15.588 35.588 12 40 12C44.412 12 48 15.588 48 20ZM46 20C46 16.692 43.308 14 40 14C36.692 14 34 16.692 34 20V30C34 33.308 36.692 36 40 36C43.308 36 46 33.308 46 30V20Z" fill="#FAFF00"/>
<g clip-path="url(#clip0_88_6325)">
<path d="M44 8C44 6.896 44.896 6 46 6C47.104 6 48 6.896 48 8C48 9.104 47.104 10 46 10C44.896 10 44 9.104 44 8ZM7.524 22.82C8.998 21.726 9.954 19.974 9.954 18C9.954 14.692 7.262 12 3.954 12H0V14H3.954C6.16 14 7.954 15.794 7.954 18C7.954 20.206 6.16 22 3.954 22H0V24H4C7.308 24 10 26.692 10 30C10 33.308 7.308 36 4 36H0V38H4C8.412 38 12 34.412 12 30C12 26.852 10.172 24.124 7.524 22.82ZM30 30C30 34.412 26.412 38 22 38C17.588 38 14 34.412 14 30V21.166C14 16.112 18.112 12 23.166 12H28V14H23.166C19.214 14 16 17.214 16 21.166V24.714C17.468 23.05 19.612 22 22 22C26.412 22 30 25.588 30 30ZM28 30C28 26.692 25.308 24 22 24C18.692 24 16 26.692 16 30C16 33.308 18.692 36 22 36C25.308 36 28 33.308 28 30ZM48 20V30C48 34.412 44.412 38 40 38C35.588 38 32 34.412 32 30V20C32 15.588 35.588 12 40 12C44.412 12 48 15.588 48 20ZM46 20C46 16.692 43.308 14 40 14C36.692 14 34 16.692 34 20V30C34 33.308 36.692 36 40 36C43.308 36 46 33.308 46 30V20Z" fill="white"/>
</g>
<defs>
<clipPath id="clip0_88_6325">
<rect width="30" height="37" fill="white" transform="translate(0 11)"/>
</clipPath>
</defs>
</svg>
