<svg width="48" height="48" viewBox="0 0 48 48" fill="none" xmlns="http://www.w3.org/2000/svg">
<g clip-path="url(#clip0_88_6316)">
<path d="M28 26H32V28H28V26ZM36 28H40V26H36V28ZM28 36H32V34H28V36ZM36 36H40V34H36V36ZM28 12H32V10H28V12ZM36 12H40V10H36V12ZM28 20H32V18H28V20ZM36 20H40V18H36V20ZM48 5V48H0V16.658C0 15.322 0.52 14.066 1.464 13.122L6.878 7.708C9.048 5.538 12.95 5.538 15.12 7.708L19.998 12.586V5C19.998 2.244 22.242 0 24.998 0H42.998C45.754 0 48 2.244 48 5ZM20 16.658C20 15.856 19.688 15.104 19.122 14.536L13.708 9.122C12.282 7.696 9.72 7.696 8.294 9.122L2.878 14.536C2.312 15.104 2 15.856 2 16.658V46H20V16.658ZM46 5C46 3.346 44.654 2 43 2H25C23.346 2 22 3.346 22 5V46H46V5ZM8 28H14V26H8V28ZM8 20H14V18H8V20ZM8 36H14V34H8V36Z" fill="white"/>
</g>
<g clip-path="url(#clip1_88_6316)">
<path d="M28 26H32V28H28V26ZM36 28H40V26H36V28ZM28 36H32V34H28V36ZM36 36H40V34H36V36ZM28 12H32V10H28V12ZM36 12H40V10H36V12ZM28 20H32V18H28V20ZM36 20H40V18H36V20ZM48 5V48H0V16.658C0 15.322 0.52 14.066 1.464 13.122L6.878 7.708C9.048 5.538 12.95 5.538 15.12 7.708L19.998 12.586V5C19.998 2.244 22.242 0 24.998 0H42.998C45.754 0 48 2.244 48 5ZM20 16.658C20 15.856 19.688 15.104 19.122 14.536L13.708 9.122C12.282 7.696 9.72 7.696 8.294 9.122L2.878 14.536C2.312 15.104 2 15.856 2 16.658V46H20V16.658ZM46 5C46 3.346 44.654 2 43 2H25C23.346 2 22 3.346 22 5V46H46V5ZM8 28H14V26H8V28ZM8 20H14V18H8V20ZM8 36H14V34H8V36Z" fill="#FAFF00"/>
</g>
<defs>
<clipPath id="clip0_88_6316">
<rect width="48" height="48" fill="white"/>
</clipPath>
<clipPath id="clip1_88_6316">
<rect width="28" height="48" fill="white" transform="translate(20)"/>
</clipPath>
</defs>
</svg>
