<svg width="48" height="48" viewBox="0 0 48 48" fill="none" xmlns="http://www.w3.org/2000/svg">
<g clip-path="url(#clip0_88_6343)">
<path d="M48 20H6V13C6 9.14 9.14 6 13 6H16.102C16.566 8.28 18.586 10 21 10H27C29.758 10 32 7.758 32 5C32 2.242 29.758 0 27 0H21C18.584 0 16.566 1.72 16.102 4H13C8.038 4 4 8.038 4 13V20H0V22H4.142L8.142 48H39.856L43.856 22H47.998L48 20ZM21 2H27C28.654 2 30 3.346 30 5C30 6.654 28.654 8 27 8H21C19.346 8 18 6.654 18 5C18 3.346 19.346 2 21 2ZM38.142 46H9.858L6.166 22H41.834L38.142 46ZM17.662 42.45L18.93 43.43L24 40.14L29.07 43.43L30.338 42.45L28.722 37.052L32.998 33.608V32H26.908L24.804 26H23.196L21.092 32H15V33.608L19.278 37.052L17.662 42.45ZM18.678 34H22.51L24 29.75L25.49 34H29.322L26.422 36.336L27.534 40.048L24 37.756L20.466 40.048L21.578 36.336L18.678 34Z" fill="#FAFF00"/>
</g>
<g clip-path="url(#clip1_88_6343)">
<path d="M48 20H6V13C6 9.14 9.14 6 13 6H16.102C16.566 8.28 18.586 10 21 10H27C29.758 10 32 7.758 32 5C32 2.242 29.758 0 27 0H21C18.584 0 16.566 1.72 16.102 4H13C8.038 4 4 8.038 4 13V20H0V22H4.142L8.142 48H39.856L43.856 22H47.998L48 20ZM21 2H27C28.654 2 30 3.346 30 5C30 6.654 28.654 8 27 8H21C19.346 8 18 6.654 18 5C18 3.346 19.346 2 21 2ZM38.142 46H9.858L6.166 22H41.834L38.142 46ZM17.662 42.45L18.93 43.43L24 40.14L29.07 43.43L30.338 42.45L28.722 37.052L32.998 33.608V32H26.908L24.804 26H23.196L21.092 32H15V33.608L19.278 37.052L17.662 42.45ZM18.678 34H22.51L24 29.75L25.49 34H29.322L26.422 36.336L27.534 40.048L24 37.756L20.466 40.048L21.578 36.336L18.678 34Z" fill="white"/>
</g>
<defs>
<clipPath id="clip0_88_6343">
<rect width="48" height="48" fill="white"/>
</clipPath>
<clipPath id="clip1_88_6343">
<rect width="48" height="20" fill="white"/>
</clipPath>
</defs>
</svg>
