<svg width="48" height="48" viewBox="0 0 48 48" fill="none" xmlns="http://www.w3.org/2000/svg">
<g clip-path="url(#clip0_88_6334)">
<path d="M46.956 42.532L42.1139 44.036L39.958 37.314C41.988 36.508 43.6699 35.044 44.7579 33.116C46.0199 30.882 46.334 28.292 45.632 25.776L41.658 13.768C40.832 11.032 37.924 9.422 35.152 10.2L26.8779 12.604C25.6859 12.936 24.6739 13.656 23.9739 14.652C23.2719 13.654 22.2599 12.936 21.0779 12.606L12.7859 10.196C10.0179 9.424 7.11795 11.03 6.29795 13.742L2.30195 25.822C0.975949 30.584 3.49795 35.524 7.98795 37.314L5.83395 44.038L0.991949 42.534L0.397949 44.444L11.9579 48.034L12.5519 46.124L7.74595 44.632L9.91595 37.86C10.4619 37.954 11.0079 38 11.5479 38C15.7499 38 19.6139 35.222 20.7839 31.024L23.9759 21.472L27.1539 30.974C27.8419 33.444 29.4479 35.498 31.6839 36.76C33.1439 37.584 34.756 38.004 36.388 38.004C36.938 38.004 37.4879 37.956 38.0359 37.86L40.208 44.63L35.4 46.122L35.9939 48.032L47.554 44.442L46.9599 42.532H46.956ZM18.8699 30.436C17.7459 34.474 13.5419 36.838 9.50595 35.72C5.46995 34.596 3.10195 30.396 4.21195 26.404L5.66995 22H21.6879L18.8699 30.436ZM22.8119 18.636L22.3559 20H6.32995L8.19995 14.346C8.62795 12.93 9.95195 12.002 11.3719 12.002C11.6599 12.002 11.9519 12.04 12.2419 12.12L20.5299 14.528C21.3919 14.768 22.1039 15.332 22.5359 16.116C22.9679 16.902 23.0619 17.808 22.8119 18.636ZM25.4099 16.12C25.8419 15.334 26.5539 14.77 27.4279 14.526L35.702 12.122C35.992 12.04 36.284 12.002 36.574 12.002C37.994 12.002 39.32 12.934 39.754 14.37L41.618 19.998H25.5939L25.1459 18.662C24.8859 17.806 24.9819 16.902 25.4119 16.118L25.4099 16.12ZM32.664 35.018C30.896 34.02 29.6219 32.394 29.0639 30.39L26.2599 22.002H42.278L43.72 26.36C44.264 28.316 44.014 30.366 43.018 32.134C42.02 33.902 40.394 35.176 38.438 35.72C36.48 36.264 34.4299 36.014 32.6619 35.016L32.664 35.018ZM30.1319 7.286L28.7179 5.872L33.2939 1.294L34.708 2.708L30.1319 7.286ZM17.7939 7.208L13.2939 2.708L14.7079 1.294L19.2079 5.794L17.7939 7.208ZM25.0019 6H23.0019V0H25.0019V6Z" fill="white"/>
</g>
<g clip-path="url(#clip1_88_6334)">
<path d="M46.956 42.532L42.1139 44.036L39.958 37.314C41.988 36.508 43.6699 35.044 44.7579 33.116C46.0199 30.882 46.334 28.292 45.632 25.776L41.658 13.768C40.832 11.032 37.924 9.422 35.152 10.2L26.8779 12.604C25.6859 12.936 24.6739 13.656 23.9739 14.652C23.2719 13.654 22.2599 12.936 21.0779 12.606L12.7859 10.196C10.0179 9.424 7.11795 11.03 6.29795 13.742L2.30195 25.822C0.975949 30.584 3.49795 35.524 7.98795 37.314L5.83395 44.038L0.991949 42.534L0.397949 44.444L11.9579 48.034L12.5519 46.124L7.74595 44.632L9.91595 37.86C10.4619 37.954 11.0079 38 11.5479 38C15.7499 38 19.6139 35.222 20.7839 31.024L23.9759 21.472L27.1539 30.974C27.8419 33.444 29.4479 35.498 31.6839 36.76C33.1439 37.584 34.756 38.004 36.388 38.004C36.938 38.004 37.4879 37.956 38.0359 37.86L40.208 44.63L35.4 46.122L35.9939 48.032L47.554 44.442L46.9599 42.532H46.956ZM18.8699 30.436C17.7459 34.474 13.5419 36.838 9.50595 35.72C5.46995 34.596 3.10195 30.396 4.21195 26.404L5.66995 22H21.6879L18.8699 30.436ZM22.8119 18.636L22.3559 20H6.32995L8.19995 14.346C8.62795 12.93 9.95195 12.002 11.3719 12.002C11.6599 12.002 11.9519 12.04 12.2419 12.12L20.5299 14.528C21.3919 14.768 22.1039 15.332 22.5359 16.116C22.9679 16.902 23.0619 17.808 22.8119 18.636ZM25.4099 16.12C25.8419 15.334 26.5539 14.77 27.4279 14.526L35.702 12.122C35.992 12.04 36.284 12.002 36.574 12.002C37.994 12.002 39.32 12.934 39.754 14.37L41.618 19.998H25.5939L25.1459 18.662C24.8859 17.806 24.9819 16.902 25.4119 16.118L25.4099 16.12ZM32.664 35.018C30.896 34.02 29.6219 32.394 29.0639 30.39L26.2599 22.002H42.278L43.72 26.36C44.264 28.316 44.014 30.366 43.018 32.134C42.02 33.902 40.394 35.176 38.438 35.72C36.48 36.264 34.4299 36.014 32.6619 35.016L32.664 35.018ZM30.1319 7.286L28.7179 5.872L33.2939 1.294L34.708 2.708L30.1319 7.286ZM17.7939 7.208L13.2939 2.708L14.7079 1.294L19.2079 5.794L17.7939 7.208ZM25.0019 6H23.0019V0H25.0019V6Z" fill="#FAFF00"/>
</g>
<defs>
<clipPath id="clip0_88_6334">
<rect width="48" height="48" fill="white"/>
</clipPath>
<clipPath id="clip1_88_6334">
<rect width="24" height="48" fill="white" transform="translate(24)"/>
</clipPath>
</defs>
</svg>
