<svg width="83" height="82" viewBox="0 0 83 82" fill="none" xmlns="http://www.w3.org/2000/svg">
<path d="M41.0834 72C23.9898 72 10.0834 58.0936 10.0834 41C10.0834 23.9064 23.9898 10 41.0834 10C58.177 10 72.0834 23.9064 72.0834 41C72.0834 58.0936 58.177 72 41.0834 72Z" fill="#4C4C4C"/>
<path d="M41.0834 61.707C29.6656 61.707 20.3763 52.4178 20.3763 41C20.3763 29.5822 29.6656 20.293 41.0834 20.293C52.5012 20.293 61.7904 29.5822 61.7904 41C61.7904 52.4178 52.5012 61.707 41.0834 61.707Z" fill="#666666"/>
<path d="M41.0834 50.8086C35.6748 50.8086 31.2748 46.4085 31.2748 41C31.2748 35.5915 35.6748 31.1914 41.0834 31.1914C46.4919 31.1914 50.892 35.5915 50.892 41C50.892 46.4085 46.4919 50.8086 41.0834 50.8086Z" fill="#FAFF00"/>
<path d="M41.0834 42.8164C40.6184 42.8164 40.1534 42.639 39.7991 42.2843C39.0896 41.5752 39.0896 40.4248 39.7991 39.7158L53.1568 26.3581C53.8659 25.6485 55.0163 25.6485 55.7253 26.3581C56.4348 27.0671 56.4348 28.2171 55.7253 28.9266L42.3676 42.2843C42.0133 42.639 41.5484 42.8164 41.0834 42.8164Z" fill="#2D2D55"/>
<path d="M55.7254 26.3579L39.7992 42.2841C40.1535 42.6389 40.6185 42.8163 41.0835 42.8163C41.5484 42.8163 42.0134 42.6389 42.3677 42.2841L55.7254 28.9264C56.4349 28.2174 56.4349 27.067 55.7254 26.3579Z" fill="#191919"/>
<path d="M61.5483 30.058C61.4977 30.058 61.4466 30.0557 61.3955 30.0519L54.2888 29.4526C53.4062 29.3778 52.7056 28.6778 52.6314 27.7951L52.0316 20.6879C51.9866 20.1548 52.1792 19.6293 52.5576 19.2509L60.2636 11.5449C60.7636 11.0449 61.5081 10.8803 62.1722 11.1234C62.8359 11.3661 63.2985 11.972 63.3581 12.6764L63.8283 18.2547L69.4071 18.7254C70.1114 18.785 70.7174 19.2476 70.9605 19.9117C71.2032 20.5754 71.0386 21.3199 70.5386 21.8199L62.8326 29.5259C62.4906 29.8679 62.028 30.058 61.5483 30.058Z" fill="white"/>
<path d="M69.4071 18.7253L63.8287 18.2546L53.1569 28.9265C53.4516 29.2212 53.847 29.4151 54.2883 29.4525L61.3955 30.0518C61.4466 30.0556 61.4972 30.058 61.5483 30.058C62.0279 30.058 62.4905 29.8678 62.8325 29.5258L70.5385 21.8198C71.0385 21.3198 71.2031 20.5753 70.9605 19.9112C70.7173 19.2475 70.1114 18.7849 69.4071 18.7253Z" fill="white"/>
</svg>
