<svg width="82" height="82" viewBox="0 0 82 82" fill="none" xmlns="http://www.w3.org/2000/svg">
<g clip-path="url(#clip0_88_6362)">
<path opacity="0.2" d="M36.5516 42.0894C36.5516 42.0894 38.6996 115.621 16.77 154.756H63.2125C63.2125 154.756 46.8706 103.154 46.4424 43.8092L36.5516 42.0894Z" fill="#4C4C4C"/>
<path d="M20.2097 48.054L16.6177 32.1982V48.5184V66.3262C16.6177 66.3262 30.8262 56.762 30.8262 51.0728V39.8322C30.8262 39.8322 27.0382 46.2471 20.2097 48.054Z" fill="#FAFF00"/>
<path d="M63.0237 48.054C56.1879 46.2471 52.4072 39.8322 52.4072 39.8322V51.0728C52.4072 56.762 66.6157 66.3262 66.6157 66.3262V48.5184V32.1982L63.0237 48.054Z" fill="#FAFF00"/>
<path d="M40.3179 8.64331C40.3179 8.64331 41.1742 3.63623 41.6096 3.63623C42.0449 3.63623 42.8722 8.64331 42.8722 8.64331H40.3179Z" fill="#4C4C4C"/>
<path d="M41.3919 69.3233C41.3846 69.2798 40.4485 64.5557 39.839 59.5269C39.4761 56.5661 39.2947 54.0699 39.302 52.1106C39.302 49.5345 39.6285 47.8872 40.2889 47.0817C40.6154 46.6826 41.0436 46.4722 41.5152 46.4722C41.9869 46.4722 42.4151 46.6826 42.7561 47.0817C43.4382 47.8872 43.8156 49.5272 43.9099 52.1033C43.9825 54.0626 43.8882 56.5516 43.6342 59.5196C43.206 64.5484 42.4441 69.258 42.4368 69.3088L41.9652 72.2042L41.3919 69.3233Z" fill="#FAFF00"/>
<path d="M46.8343 10.4793C44.7081 10.697 43.489 -0.732178 41.6168 -0.732178C39.7446 -0.732178 37.9812 10.639 36.3412 10.4648C33.3079 22.8954 30.2747 39.4841 28.5186 53.9974C28.5186 56.0002 33.112 57.1685 38.4456 57.4951C37.7055 49.0991 38.6706 46.7335 39.5196 45.703C40.0421 45.0717 40.7242 44.7307 41.4934 44.7307C42.0231 44.7307 42.7996 44.8976 43.4745 45.6885C44.3525 46.719 45.3902 49.0774 44.9476 57.4806C50.2159 57.1395 54.715 55.9784 54.715 53.9974C52.9879 39.1576 49.9039 22.8229 46.8343 10.4793Z" fill="#666666"/>
<path d="M46.8493 10.5446C46.842 10.5229 46.842 10.5011 46.8348 10.4793C44.7086 10.697 43.4895 -0.732178 41.6172 -0.732178C39.745 -0.732178 37.9817 10.639 36.3417 10.4648C36.3344 10.4866 36.3271 10.5156 36.3271 10.5374H46.8493V10.5446Z" fill="#FAFF00"/>
<path d="M46.856 34.0345C46.856 36.9299 44.5121 39.2738 41.6167 39.2738C38.7213 39.2738 36.3774 36.9299 36.3774 34.0345C36.3774 31.1391 38.7213 28.7952 41.6167 28.7952C44.5121 28.7952 46.856 31.1391 46.856 34.0345Z" fill="white"/>
<path opacity="0.2" d="M29.4624 77.5671C29.4624 78.1622 28.9835 78.6411 28.3884 78.6411C27.7934 78.6411 27.3145 78.1622 27.3145 77.5671C27.3145 76.9721 27.7934 76.4932 28.3884 76.4932C28.9835 76.4932 29.4624 76.9721 29.4624 77.5671Z" fill="#4C4C4C"/>
<path opacity="0.2" d="M58.0533 74.6644C58.0533 75.2014 57.6179 75.6296 57.0882 75.6296C56.5512 75.6296 56.123 75.1942 56.123 74.6644C56.123 74.1275 56.5584 73.6993 57.0882 73.6993C57.6252 73.6921 58.0533 74.1275 58.0533 74.6644Z" fill="#4C4C4C"/>
</g>
<defs>
<clipPath id="clip0_88_6362">
<rect width="82" height="82" fill="white"/>
</clipPath>
</defs>
</svg>
