<svg width="83" height="82" viewBox="0 0 83 82" fill="none" xmlns="http://www.w3.org/2000/svg">
<path d="M28.9073 22.3038L25.2871 18.6761C24.4473 17.8346 23.3303 17.3713 22.1415 17.3713C20.9527 17.3713 19.8356 17.8348 18.9959 18.6761L16.3717 21.306C14.6443 23.0368 14.6443 25.8532 16.3717 27.5841L19.9996 31.2195C20.3544 31.575 20.8197 31.7528 21.2853 31.7528C21.7495 31.7528 22.2139 31.5759 22.5685 31.2222C23.2785 30.5135 28.1957 25.5803 28.9048 24.8726C29.6148 24.1641 29.616 23.0141 28.9073 22.3038Z" fill="white"/>
<path d="M41.75 10.3633C40.7469 10.3633 39.9336 11.1765 39.9336 12.1797V17.9922C39.9336 18.9953 40.7469 19.8086 41.75 19.8086C42.7531 19.8086 43.5664 18.9953 43.5664 17.9922V12.1797C43.5664 11.1765 42.7531 10.3633 41.75 10.3633Z" fill="#FAFF00"/>
<path d="M46.2305 10H37.2695C36.2664 10 35.4531 10.8133 35.4531 11.8164C35.4531 12.8195 36.2664 13.6328 37.2695 13.6328H46.2305C47.2336 13.6328 48.0469 12.8195 48.0469 11.8164C48.0469 10.8133 47.2336 10 46.2305 10Z" fill="#FAFF00"/>
<path d="M41.75 10H37.2695C36.2664 10 35.4531 10.8133 35.4531 11.8164C35.4531 12.8195 36.2664 13.6328 37.2695 13.6328H41.75V10Z" fill="#FAFF00"/>
<path d="M61.4453 24.3636C56.1847 19.0922 49.1901 16.189 41.75 16.189C34.3099 16.189 27.3153 19.0922 22.0547 24.3636C16.7951 29.6341 13.8986 36.6414 13.8986 44.0945C13.8986 51.5476 16.7951 58.5549 22.0547 63.8254C27.3153 69.0969 34.3099 72.0001 41.75 72.0001C49.1901 72.0001 56.1847 69.0969 61.4453 63.8254C66.7049 58.5549 69.6014 51.5476 69.6014 44.0945C69.6014 36.6414 66.7049 29.6341 61.4453 24.3636Z" fill="#666666"/>
<path d="M41.75 16.189C34.3099 16.189 27.3153 19.0922 22.0547 24.3636C16.7951 29.6341 13.8986 36.6414 13.8986 44.0945C13.8986 51.5476 16.7951 58.5549 22.0547 63.8254C27.3153 69.0969 34.3099 72.0001 41.75 72.0001V16.189Z" fill="#666666"/>
<path d="M41.7501 23.1433C30.2198 23.1433 20.8391 32.5419 20.8391 44.0943C20.8391 55.6468 30.2198 65.0455 41.7501 65.0455C53.2804 65.0455 62.661 55.6468 62.661 44.0943C62.661 32.5419 53.2804 23.1433 41.7501 23.1433Z" fill="#B2B2B2"/>
<path d="M41.7501 23.1433C30.2198 23.1433 20.8391 32.5419 20.8391 44.0943C20.8391 55.6468 30.2198 65.0455 41.7501 65.0455V23.1433Z" fill="#CCCCCC"/>
<path d="M41.75 27.6807C42.7531 27.6807 43.5664 26.8674 43.5664 25.8643V23.2235C42.9676 23.1716 42.362 23.1436 41.75 23.1436C41.138 23.1436 40.5324 23.1716 39.9336 23.2235V25.8643C39.9336 26.8674 40.7469 27.6807 41.75 27.6807Z" fill="#191919"/>
<path d="M41.75 60.5085C40.7469 60.5085 39.9336 61.3218 39.9336 62.325V64.9658C40.5324 65.0176 41.138 65.0457 41.75 65.0457C42.362 65.0457 42.9676 65.0176 43.5664 64.9658V62.325C43.5664 61.3218 42.7531 60.5085 41.75 60.5085Z" fill="#191919"/>
<path d="M62.5816 42.2781H59.9803C58.9772 42.2781 58.1639 43.0913 58.1639 44.0945C58.1639 45.0976 58.9772 45.9109 59.9803 45.9109H62.5816C62.6331 45.3121 62.661 44.7065 62.661 44.0945C62.661 43.4825 62.6331 42.8769 62.5816 42.2781Z" fill="#191919"/>
<path d="M25.3362 44.0945C25.3362 43.0913 24.5229 42.2781 23.5198 42.2781H20.9185C20.867 42.8769 20.8391 43.4825 20.8391 44.0945C20.8391 44.7065 20.867 45.3121 20.9185 45.9109H23.5198C24.5229 45.9109 25.3362 45.0976 25.3362 44.0945Z" fill="#191919"/>
<path d="M46.2306 43.0463H43.668V35.7C43.668 34.6968 42.8547 33.8835 41.8516 33.8835C40.8484 33.8835 40.0352 34.6968 40.0352 35.7V44.8627C40.0352 45.8659 40.8484 46.6792 41.8516 46.6792H46.2306C47.2337 46.6792 48.047 45.8659 48.047 44.8627C48.047 43.8596 47.2337 43.0463 46.2306 43.0463Z" fill="#191919"/>
</svg>
