<svg width="83" height="82" viewBox="0 0 83 82" fill="none" xmlns="http://www.w3.org/2000/svg">
<g clip-path="url(#clip0_88_6391)">
<path fill-rule="evenodd" clip-rule="evenodd" d="M18.8588 49.9204L20.9872 46.5088C21.7904 45.2215 23.5042 44.8234 24.7954 45.6243C26.0866 46.4257 26.4857 48.1341 25.6824 49.4218L23.5542 52.833C22.7506 54.1207 21.0371 54.5187 19.746 53.7177C18.4546 52.9166 18.0553 51.2079 18.8588 49.9204Z" fill="#666666"/>
<path opacity="0.3" fill-rule="evenodd" clip-rule="evenodd" d="M18.0761 27.2749C28.6632 31.5503 27.8954 29.963 39.1273 27.353C38.8897 31.1703 39.3726 32.1114 44.8123 35.6831C50.3901 39.3451 55.9675 43.0072 61.5452 46.6692C61.4764 50.4038 60.3638 52.1842 57.1708 52.1797C57.5391 55.1076 56.2885 56.4824 52.6991 56.8141C51.7947 59.9713 48.7799 60.6737 46.8601 59.6764C44.9434 62.7675 42.8925 63.0504 40.7677 61.7792C30.317 54.5184 23.5574 48.9745 10.8506 45.6565C13.2591 39.5295 15.6677 33.4023 18.0761 27.2749Z" fill="#4C4C4C"/>
<path fill-rule="evenodd" clip-rule="evenodd" d="M39.8003 31.5476C40.5593 32.7286 42.0434 33.8651 44.8122 35.6831L57.7075 44.15L57.7179 44.176C56.0212 43.2979 43.8431 36.5131 43.143 37.0946C39.9527 39.744 37.2012 40.6411 34.8857 39.8016C34.9906 38.5444 35.0959 37.2873 35.2006 36.0301L39.8003 31.5476Z" fill="#666666"/>
<path fill-rule="evenodd" clip-rule="evenodd" d="M59.8584 45.562L61.545 46.6693C61.4761 50.4039 60.3635 52.1843 57.1705 52.1797C57.5388 55.1077 56.2882 56.4825 52.6988 56.8142C51.7944 59.9713 48.7796 60.6738 46.8598 59.6764C45.0005 62.6752 43.0153 63.0306 40.9583 61.8896C43.6452 62.4253 46.04 60.2336 44.9354 58.0319C44.467 57.0971 43.7055 56.2016 43.2369 55.2667C44.0719 55.8939 44.7901 56.6667 45.6253 57.2935C47.8485 58.9618 51.8319 56.7117 48.0406 52.7355C48.7583 53.2152 49.4822 53.6849 50.1928 54.1748C52.616 55.8434 56.0675 53.6271 53.7759 50.3635C53.1964 49.5378 52.6343 48.6995 52.0635 47.8675C56.1044 51.0149 60.6346 49.7913 59.8584 45.562Z" fill="#666666"/>
<path fill-rule="evenodd" clip-rule="evenodd" d="M61.5449 46.6692C64.2851 45.6048 67.0255 44.5406 69.7661 43.4762C67.579 37.8423 65.3918 32.2085 63.2047 26.5746C58.4085 28.1381 56.747 29.64 51.921 28.5317C46.1305 27.2021 35.6025 24.7966 35.176 27.3154C34.5193 31.1907 33.2024 34.715 31.3354 37.9461C35.3022 42.0491 39.8626 38.8003 42.2528 33.9197C48.4678 38.2372 55.0709 42.4331 61.5449 46.6692Z" fill="#4C4C4C"/>
<path d="M30.8745 52.735C33.1264 49.5751 28.5174 46.5341 26.5219 49.3335C25.9474 50.1401 25.3727 50.9462 24.7976 51.7526C22.5453 54.9124 27.1548 57.9532 29.15 55.154C29.7251 54.3477 30.2996 53.5413 30.8745 52.735Z" fill="#666666"/>
<path d="M31.4686 52.8827C30.7665 53.7725 30.0644 54.6625 29.3623 55.5523C27.4502 57.9756 31.1241 60.858 33.0364 58.4349C33.7385 57.5449 34.4406 56.6551 35.1427 55.7651C37.0546 53.3422 33.3809 50.4596 31.4686 52.8827Z" fill="#666666"/>
<path d="M35.5607 56.0928C34.9268 56.8965 34.2927 57.7 33.6582 58.5035C31.9315 60.692 35.2495 63.2952 36.9765 61.1067C37.6104 60.3032 38.2448 59.4997 38.8785 58.696C40.6057 56.5078 37.2874 53.9045 35.5607 56.0928Z" fill="#666666"/>
<path fill-rule="evenodd" clip-rule="evenodd" d="M57.3062 26.9805L60.4312 25.7517L68.1395 45.2429L65.0149 46.4713L57.3062 26.9805Z" fill="#4C4C4C"/>
<path fill-rule="evenodd" clip-rule="evenodd" d="M73.7481 19.5103L60.0872 24.8821L68.483 46.1123L82.1445 40.7404L73.7481 19.5103Z" fill="#FAFF00"/>
<path fill-rule="evenodd" clip-rule="evenodd" d="M24.9831 29.0744L21.8583 27.8457L14.1501 47.3369L17.2746 48.5655L24.9831 29.0744Z" fill="#4C4C4C"/>
<path fill-rule="evenodd" clip-rule="evenodd" d="M8.54082 21.6042L22.2021 26.9761L13.8061 48.2063L0.144775 42.8344L8.54082 21.6042Z" fill="#B2B2B2"/>
</g>
<defs>
<clipPath id="clip0_88_6391">
<rect width="82" height="42.9793" fill="white" transform="translate(0.144531 19.5103)"/>
</clipPath>
</defs>
</svg>
