<svg width="83" height="82" viewBox="0 0 83 82" fill="none" xmlns="http://www.w3.org/2000/svg">
<path opacity="0.5" fill-rule="evenodd" clip-rule="evenodd" d="M65.8242 19.5402C65.8242 14.2715 61.5532 9.99976 56.2855 9.99976C46.2623 9.99976 28.154 9.99976 18.1308 9.99976C12.8631 9.99976 8.59216 14.2715 8.59216 19.5402V57.7091C8.59216 62.9779 12.8631 67.2496 18.1308 67.2496H56.2855C61.5532 67.2496 65.8242 62.9779 65.8242 57.7091V19.5402Z" fill="#4C4C4C"/>
<path fill-rule="evenodd" clip-rule="evenodd" d="M75.371 24.3013C75.371 19.0337 71.0996 14.7629 65.8314 14.7629C55.8073 14.7629 37.6973 14.7629 27.6732 14.7629C22.405 14.7629 18.1337 19.0337 18.1337 24.3013V62.4615C18.1337 67.7291 22.405 71.9999 27.6732 71.9999H65.8314C71.0996 71.9999 75.371 67.7291 75.371 62.4615V24.3013Z" fill="#666666"/>
<path fill-rule="evenodd" clip-rule="evenodd" d="M18.1344 43.3812V62.4597C18.1344 67.7278 22.4056 71.999 27.6737 71.999H65.8307H65.9547C71.1655 71.9322 75.3699 67.6872 75.3699 62.4597V50.5356C75.3699 50.5356 69.7704 38.6116 56.2914 38.6116C49.3278 38.6116 46.4827 41.9861 43.6972 45.4679C41.713 47.9481 39.7885 50.5356 34.8281 50.5356C32.3765 50.5356 29.9416 49.5078 27.8835 48.3321C24.5734 46.4409 22.2053 44.0799 22.2053 44.0799C21.2752 43.1499 19.0645 42.4511 18.1344 43.3812Z" fill="#999999"/>
<path fill-rule="evenodd" clip-rule="evenodd" d="M39.5978 33.8419C39.5978 35.7394 38.8441 37.5592 37.5023 38.9009C36.1606 40.2426 34.3409 40.9964 32.4434 40.9964C30.5459 40.9964 28.7261 40.2426 27.3844 38.9009C26.0427 37.5592 25.2889 35.7394 25.2889 33.8419C25.2889 31.9445 26.0427 30.1247 27.3844 28.783C28.7261 27.4413 30.5459 26.6875 32.4434 26.6875C34.3409 26.6875 36.1606 27.4413 37.5023 28.783C38.8441 30.1247 39.5978 31.9445 39.5978 33.8419Z" fill="black" fill-opacity="0.1"/>
<path fill-rule="evenodd" clip-rule="evenodd" d="M41.9826 31.4572C41.9826 33.3546 41.2288 35.1744 39.8871 36.5161C38.5454 37.8578 36.7256 38.6116 34.8281 38.6116C32.9307 38.6116 31.1109 37.8578 29.7692 36.5161C28.4275 35.1744 27.6737 33.3546 27.6737 31.4572C27.6737 29.5597 28.4275 27.7399 29.7692 26.3982C31.1109 25.0565 32.9307 24.3027 34.8281 24.3027C36.7256 24.3027 38.5454 25.0565 39.8871 26.3982C41.2288 27.7399 41.9826 29.5597 41.9826 31.4572Z" fill="#FAFF00"/>
</svg>
