<svg width="83" height="82" viewBox="0 0 83 82" fill="none" xmlns="http://www.w3.org/2000/svg">
<path fill-rule="evenodd" clip-rule="evenodd" d="M19.7416 45.8944V68.7365C19.7416 69.938 18.7676 70.912 17.5662 70.912H12.1276C10.9276 70.9084 9.95573 69.9365 9.95215 68.7365V45.8944C9.95573 44.6945 10.9276 43.7226 12.1276 43.719H17.5662C18.7662 43.7226 19.738 44.6945 19.7416 45.8944Z" fill="white"/>
<path fill-rule="evenodd" clip-rule="evenodd" d="M17.5659 43.719H14.3027C15.5027 43.7226 16.4746 44.6945 16.4782 45.8944V68.7365C16.4782 69.938 15.5042 70.912 14.3027 70.912H17.5659C18.7674 70.912 19.7413 69.938 19.7413 68.7365V45.8944C19.7377 44.6945 18.7659 43.7226 17.5659 43.719Z" fill="#666666"/>
<path fill-rule="evenodd" clip-rule="evenodd" d="M71.6044 56.304L51.2205 68.7149C50.0275 69.4408 48.6578 69.8246 47.2612 69.8244H19.4482C19.64 69.4939 19.7412 69.1187 19.7419 68.7366V45.8945H22.7875C25.0408 45.8977 27.2264 46.6646 28.9875 48.07C30.7487 49.4754 32.9343 50.2423 35.1875 50.2454H40.8763C45.0749 50.2454 47.8921 55.0205 45.0423 57.8594H47.5984C48.0683 57.8597 48.535 57.7825 48.9798 57.631L69.1135 50.9198C70.3321 50.5197 71.6702 50.9395 72.4419 51.964V51.9749C72.9477 52.6462 73.1452 53.5004 72.9855 54.3256C72.8259 55.1508 72.324 55.8697 71.6044 56.304Z" fill="#B2B2B2"/>
<path fill-rule="evenodd" clip-rule="evenodd" d="M41.7783 57.8594H44.3344C44.5932 57.8578 44.8513 57.8326 45.1056 57.7843C47.8358 54.9378 45.0382 50.2454 40.8755 50.2454H37.6123C41.8109 50.2454 44.6281 55.0204 41.7783 57.8594Z" fill="#CCCCCC"/>
<path fill-rule="evenodd" clip-rule="evenodd" d="M72.4409 51.9748V51.964C71.6693 50.9394 70.3311 50.5196 69.1125 50.9197L68.2978 51.1917C68.6394 51.3883 68.9385 51.6508 69.1778 51.964V51.9748C69.6835 52.6462 69.881 53.5004 69.7214 54.3256C69.5617 55.1508 69.0599 55.8697 68.3402 56.3039L47.9564 68.7148C46.7633 69.4408 45.3936 69.8246 43.9971 69.8243H47.2602C48.6568 69.8246 50.0265 69.4408 51.2195 68.7148L71.6034 56.3039C72.323 55.8697 72.8249 55.1508 72.9845 54.3256C73.1442 53.5004 72.9467 52.6462 72.4409 51.9748Z" fill="#CCCCCC"/>
<path d="M46.9338 45.8944C56.5455 45.8944 64.3373 38.1026 64.3373 28.4909C64.3373 18.8792 56.5455 11.0874 46.9338 11.0874C37.3221 11.0874 29.5303 18.8792 29.5303 28.4909C29.5303 38.1026 37.3221 45.8944 46.9338 45.8944Z" fill="#FAFF00"/>
<path fill-rule="evenodd" clip-rule="evenodd" d="M46.9343 11.0874C46.3839 11.0874 45.8401 11.12 45.3027 11.1701C54.2417 12.0091 61.0739 19.5127 61.0739 28.4909C61.0739 37.4691 54.2417 44.9727 45.3027 45.8118C45.8401 45.8618 46.3839 45.8944 46.9343 45.8944C56.546 45.8944 64.3378 38.1026 64.3378 28.4909C64.3378 18.8792 56.546 11.0874 46.9343 11.0874Z" fill="#90AC00"/>
<path d="M12.1264 71.9995H17.565C18.488 71.9966 19.366 71.6011 19.9798 70.9118H47.2598C48.8559 70.9126 50.4215 70.4738 51.7847 69.6435L72.1685 57.2348C73.1326 56.6528 73.8113 55.6961 74.0421 54.5939C74.273 53.4917 74.0352 52.3431 73.3857 51.4231C73.3634 51.3851 73.3383 51.3487 73.3106 51.3144C72.2581 49.9167 70.4322 49.345 68.7705 49.8927L48.6281 56.6018C48.296 56.7144 47.9477 56.7717 47.597 56.7715H47.0042C47.4206 55.5737 47.3709 54.2631 46.8649 53.1004C45.8365 50.7079 43.4823 49.1574 40.8781 49.1574H35.1861C33.1791 49.1552 31.2323 48.4722 29.6637 47.2202C27.7099 45.6614 25.2856 44.8106 22.7861 44.8065H20.6281C20.1688 43.5074 18.9429 42.6368 17.565 42.6311H12.1264C10.3242 42.6311 8.86328 44.0921 8.86328 45.8943V68.7364C8.86328 70.5386 10.3242 71.9995 12.1264 71.9995ZM28.3063 48.9192C30.2607 50.4784 32.6859 51.3292 35.1861 51.3329H40.8759C42.6017 51.3277 44.1651 52.3497 44.8526 53.9325C45.2827 54.862 45.1673 55.9525 44.5524 56.7715H37.9282C35.7807 56.7726 33.6814 57.408 31.8936 58.5977L31.0984 59.1307C30.5992 59.4659 30.4663 60.1423 30.8015 60.6416C31.1367 61.1408 31.8131 61.2737 32.3123 60.9385L33.0998 60.4077C34.5303 59.4559 36.21 58.9477 37.9282 58.9469H47.597C48.184 58.9475 48.7672 58.8516 49.3232 58.663L69.4492 51.9529C70.1954 51.7069 71.016 51.944 71.5159 52.55C71.5322 52.5772 71.5507 52.6022 71.5692 52.6283C71.8905 53.0544 72.0158 53.5968 71.9139 54.1205C71.8121 54.6443 71.4927 55.1002 71.0351 55.3748L50.6535 67.7857C49.631 68.4082 48.4568 68.7371 47.2598 68.7364H20.8282V46.982H22.7861C24.7923 46.9846 26.7383 47.6676 28.3063 48.9192ZM11.0387 45.8943C11.0387 45.2935 11.5257 44.8065 12.1264 44.8065H17.565C18.1658 44.8065 18.6528 45.2935 18.6528 45.8943V68.7364C18.6528 69.3371 18.1658 69.8241 17.565 69.8241H12.1264C11.5257 69.8241 11.0387 69.3371 11.0387 68.7364V45.8943Z" fill="#191919"/>
<path fill-rule="evenodd" clip-rule="evenodd" d="M40.7336 36.8773C41.1351 37.2788 41.778 37.3039 42.2096 36.9349L57.4377 23.8823C57.8758 23.4874 57.9193 22.8152 57.5358 22.3671C57.1523 21.9189 56.4815 21.8581 56.0236 22.23L41.557 34.63L37.9153 30.9927C37.4834 30.6264 36.8427 30.6528 36.4423 31.0534C36.042 31.454 36.0161 32.0947 36.3827 32.5264L40.7336 36.8773Z" fill="#191919"/>
<path fill-rule="evenodd" clip-rule="evenodd" d="M25.1788 28.4908C25.1788 27.8901 24.6918 27.4031 24.0911 27.4031H20.828C20.2272 27.4031 19.7402 27.8901 19.7402 28.4908C19.7402 29.0915 20.2272 29.5785 20.828 29.5785H24.0911C24.6918 29.5785 25.1788 29.0915 25.1788 28.4908Z" fill="white"/>
<path fill-rule="evenodd" clip-rule="evenodd" d="M73.0384 27.4031H69.7752C69.1745 27.4031 68.6875 27.8901 68.6875 28.4908C68.6875 29.0915 69.1745 29.5785 69.7752 29.5785H73.0384C73.6391 29.5785 74.1261 29.0915 74.1261 28.4908C74.1261 27.8901 73.6391 27.4031 73.0384 27.4031Z" fill="white"/>
<path fill-rule="evenodd" clip-rule="evenodd" d="M24.1805 42.0875C24.3715 42.0879 24.5592 42.0376 24.7244 41.9417L27.5525 40.3101C27.8918 40.1172 28.1017 39.7573 28.1026 39.367C28.1034 38.9766 27.8951 38.6158 27.5566 38.4214C27.2182 38.227 26.8015 38.2288 26.4648 38.4262L23.6367 40.0578C23.2104 40.304 23.0025 40.8058 23.1299 41.2813C23.2574 41.7568 23.6883 42.0875 24.1805 42.0875Z" fill="white"/>
<path fill-rule="evenodd" clip-rule="evenodd" d="M65.9174 18.1574C66.2178 18.6777 66.883 18.8559 67.4032 18.5555L70.2313 16.924C70.7471 16.6216 70.9221 15.9595 70.6232 15.4417C70.3242 14.9239 69.6633 14.7445 69.1436 15.04L66.3155 16.6716C65.7953 16.972 65.617 17.6372 65.9174 18.1574Z" fill="white"/>
<path fill-rule="evenodd" clip-rule="evenodd" d="M65.9174 38.824C65.617 39.3443 65.7953 40.0095 66.3155 40.3099L69.1436 41.9414C69.6633 42.237 70.3242 42.0575 70.6232 41.5397C70.9221 41.0219 70.7471 40.3599 70.2313 40.0575L67.4032 38.4259C66.883 38.1256 66.2178 38.3038 65.9174 38.824Z" fill="white"/>
<path fill-rule="evenodd" clip-rule="evenodd" d="M27.5512 16.6716L24.7232 15.04C24.2034 14.7445 23.5425 14.9239 23.2436 15.4417C22.9446 15.9595 23.1196 16.6216 23.6354 16.924L26.4635 18.5555C26.8002 18.7529 27.2169 18.7548 27.5554 18.5604C27.8938 18.366 28.1022 18.0051 28.1013 17.6148C28.1005 17.2245 27.8905 16.8645 27.5512 16.6716Z" fill="white"/>
<path d="M46.9346 46.982C57.147 46.982 65.4258 38.7032 65.4258 28.4907C65.4258 18.2783 57.147 9.99951 46.9346 9.99951C36.7222 9.99951 28.4434 18.2783 28.4434 28.4907C28.4547 38.6984 36.7269 46.9706 46.9346 46.982ZM46.9346 12.175C55.9455 12.175 63.2504 19.4798 63.2504 28.4907C63.2504 37.5017 55.9455 44.8065 46.9346 44.8065C37.9236 44.8065 30.6188 37.5017 30.6188 28.4907C30.629 19.484 37.9278 12.1851 46.9346 12.175Z" fill="#191919"/>
</svg>
