<svg width="83" height="82" viewBox="0 0 83 82" fill="none" xmlns="http://www.w3.org/2000/svg">
<g clip-path="url(#clip0_77_12403)">
<path fill-rule="evenodd" clip-rule="evenodd" d="M19.3593 49.9204L21.4877 46.5088C22.2909 45.2215 24.0047 44.8234 25.2959 45.6243C26.5871 46.4257 26.9862 48.1341 26.1829 49.4218L24.0547 52.833C23.2511 54.1207 21.5375 54.5187 20.2465 53.7177C18.9551 52.9166 18.5558 51.2079 19.3593 49.9204Z" fill="#666666"/>
<path opacity="0.3" fill-rule="evenodd" clip-rule="evenodd" d="M18.5761 27.2749C29.1632 31.5503 28.3954 29.963 39.6273 27.353C39.3897 31.1703 39.8726 32.1114 45.3123 35.6831C50.8901 39.3451 56.4675 43.0072 62.0452 46.6692C61.9764 50.4038 60.8638 52.1842 57.6708 52.1797C58.0391 55.1076 56.7885 56.4824 53.1991 56.8141C52.2947 59.9713 49.2799 60.6737 47.3601 59.6764C45.4434 62.7675 43.3925 63.0504 41.2677 61.7792C30.817 54.5184 24.0574 48.9745 11.3506 45.6565C13.7591 39.5295 16.1677 33.4023 18.5761 27.2749Z" fill="#4C4C4C"/>
<path fill-rule="evenodd" clip-rule="evenodd" d="M40.3003 31.5476C41.0593 32.7286 42.5434 33.8651 45.3122 35.6831L58.2075 44.15L58.2179 44.176C56.5212 43.2979 44.3431 36.5131 43.643 37.0946C40.4527 39.744 37.7012 40.6411 35.3857 39.8016C35.4906 38.5444 35.5959 37.2873 35.7006 36.0301L40.3003 31.5476Z" fill="#666666"/>
<path fill-rule="evenodd" clip-rule="evenodd" d="M60.3582 45.562L62.0447 46.6693C61.9759 50.4039 60.8633 52.1843 57.6702 52.1797C58.0385 55.1077 56.7879 56.4825 53.1985 56.8142C52.2942 59.9713 49.2793 60.6738 47.3595 59.6764C45.5003 62.6752 43.515 63.0306 41.458 61.8896C44.145 62.4253 46.5397 60.2336 45.4352 58.0319C44.9667 57.0971 44.2053 56.2016 43.7366 55.2667C44.5716 55.8939 45.2899 56.6667 46.1251 57.2935C48.3483 58.9618 52.3316 56.7117 48.5403 52.7355C49.258 53.2152 49.982 53.6849 50.6926 54.1748C53.1157 55.8434 56.5673 53.6271 54.2756 50.3635C53.6962 49.5378 53.1341 48.6995 52.5633 47.8675C56.6042 51.0149 61.1344 49.7913 60.3582 45.562Z" fill="#666666"/>
<path fill-rule="evenodd" clip-rule="evenodd" d="M62.0454 46.6692C64.7856 45.6048 67.526 44.5406 70.2666 43.4762C68.0794 37.8423 65.8923 32.2085 63.7052 26.5746C58.9089 28.1381 57.2474 29.64 52.4215 28.5317C46.6309 27.2021 36.103 24.7966 35.6765 27.3154C35.0197 31.1907 33.7029 34.715 31.8359 37.9461C35.8027 42.0491 40.3631 38.8003 42.7533 33.9197C48.9683 38.2372 55.5713 42.4331 62.0454 46.6692Z" fill="#4C4C4C"/>
<path d="M31.3741 52.735C33.6259 49.5751 29.017 46.5341 27.0215 49.3335C26.4469 50.1401 25.8722 50.9462 25.2971 51.7526C23.0449 54.9124 27.6544 57.9532 29.6495 55.154C30.2246 54.3477 30.7991 53.5413 31.3741 52.735Z" fill="#666666"/>
<path d="M31.9683 52.8827C31.2662 53.7725 30.5641 54.6625 29.862 55.5523C27.9499 57.9756 31.6239 60.858 33.5362 58.4349C34.2383 57.5449 34.9404 56.6551 35.6425 55.7651C37.5544 53.3422 33.8806 50.4596 31.9683 52.8827Z" fill="#666666"/>
<path d="M36.0602 56.0928C35.4263 56.8965 34.7922 57.7 34.1577 58.5035C32.431 60.692 35.749 63.2952 37.476 61.1067C38.1099 60.3032 38.7444 59.4997 39.378 58.696C41.1052 56.5078 37.7869 53.9045 36.0602 56.0928Z" fill="#666666"/>
<path fill-rule="evenodd" clip-rule="evenodd" d="M57.8057 26.9805L60.9307 25.7517L68.639 45.2429L65.5144 46.4713L57.8057 26.9805Z" fill="#4C4C4C"/>
<path fill-rule="evenodd" clip-rule="evenodd" d="M74.2478 19.5103L60.5869 24.8821L68.9828 46.1123L82.6443 40.7404L74.2478 19.5103Z" fill="#FAFF00"/>
<path fill-rule="evenodd" clip-rule="evenodd" d="M25.4834 29.0744L22.3585 27.8457L14.6504 47.3369L17.7749 48.5655L25.4834 29.0744Z" fill="#4C4C4C"/>
<path fill-rule="evenodd" clip-rule="evenodd" d="M9.04057 21.6042L22.7019 26.9761L14.3058 48.2063L0.644531 42.8344L9.04057 21.6042Z" fill="#B2B2B2"/>
</g>
<defs>
<clipPath id="clip0_77_12403">
<rect width="82" height="42.9793" fill="white" transform="translate(0.644531 19.5103)"/>
</clipPath>
</defs>
</svg>
