<svg width="94" height="28" viewBox="0 0 94 28" fill="none" xmlns="http://www.w3.org/2000/svg">
<path d="M61.6002 0H51.2617V2.58462H59.8771C61.6002 2.58462 64.6156 3.44615 64.6156 7.75385C64.6156 12.5785 61.1694 13.4974 59.4463 13.3538H54.2771V15.5077L64.6156 27.5692H68.4925L58.154 15.9385C61.1694 16.2256 66.8157 15.1518 67.2002 8.61539C67.631 1.29231 63.4668 0.14359 61.6002 0Z" fill="white"/>
<path d="M3.44615 28H0L9.90769 0H12.4923L22.4 28H18.9538L11.2 5.16923L3.44615 28Z" fill="white"/>
<path d="M74.954 28H71.5078L81.4155 0H84.0001L93.9078 28H90.4617L82.7078 5.16923L74.954 28Z" fill="white"/>
<path d="M28.4307 18.5231V0H25.8461V18.5231C25.7025 21.6821 27.3968 28 35.323 28C43.2491 28 45.5179 21.9692 45.6614 18.9538V0H43.0768V18.5231C42.6461 20.8205 40.4922 25.4154 35.323 25.4154C30.1538 25.4154 28.5743 20.8205 28.4307 18.5231Z" fill="white"/>
</svg>
