<svg width="48" height="48" viewBox="0 0 48 48" fill="none" xmlns="http://www.w3.org/2000/svg">
<g clip-path="url(#clip0_31_605)">
<path d="M27 20H21C18.244 20 16 22.242 16 25V38H20V48H22V38H26V48H28V38H32V25C32 22.242 29.756 20 27 20ZM30 36H18V25C18 23.346 19.346 22 21 22H27C28.654 22 30 23.346 30 25V36ZM29 13C29 10.242 26.756 8 24 8C21.244 8 19 10.242 19 13C19 15.758 21.244 18 24 18C26.756 18 29 15.758 29 13ZM21 13C21 11.346 22.346 10 24 10C25.654 10 27 11.346 27 13C27 14.654 25.654 16 24 16C22.346 16 21 14.654 21 13ZM24 0C9.87 0 0 4.524 0 11V37.744C0 41.818 4 45.962 12 47.788V18.632C6.108 16.978 2 14.066 2 11C2 5.87 11.458 2 24 2C36.542 2 46 5.87 46 11C46 14.066 41.892 16.978 36 18.632V47.788C43.576 45.846 48 41.818 48 37.744V11C48 4.524 38.13 0 24 0ZM10 20.14V45.062C4.962 43.28 2 40.594 2 37.744V15.738C3.678 17.538 6.38 19.036 10 20.14ZM46 37.744C46 40.594 43.038 43.282 38 45.062V20.14C41.62 19.036 44.322 17.538 46 15.738V37.744Z" fill="white"/>
</g>
<g clip-path="url(#clip1_31_605)">
<path d="M27 20H21C18.244 20 16 22.242 16 25V38H20V48H22V38H26V48H28V38H32V25C32 22.242 29.756 20 27 20ZM30 36H18V25C18 23.346 19.346 22 21 22H27C28.654 22 30 23.346 30 25V36ZM29 13C29 10.242 26.756 8 24 8C21.244 8 19 10.242 19 13C19 15.758 21.244 18 24 18C26.756 18 29 15.758 29 13ZM21 13C21 11.346 22.346 10 24 10C25.654 10 27 11.346 27 13C27 14.654 25.654 16 24 16C22.346 16 21 14.654 21 13ZM24 0C9.87 0 0 4.524 0 11V37.744C0 41.818 4 45.962 12 47.788V18.632C6.108 16.978 2 14.066 2 11C2 5.87 11.458 2 24 2C36.542 2 46 5.87 46 11C46 14.066 41.892 16.978 36 18.632V47.788C43.576 45.846 48 41.818 48 37.744V11C48 4.524 38.13 0 24 0ZM10 20.14V45.062C4.962 43.28 2 40.594 2 37.744V15.738C3.678 17.538 6.38 19.036 10 20.14ZM46 37.744C46 40.594 43.038 43.282 38 45.062V20.14C41.62 19.036 44.322 17.538 46 15.738V37.744Z" fill="#FAFF00"/>
</g>
<defs>
<clipPath id="clip0_31_605">
<rect width="48" height="48" fill="white"/>
</clipPath>
<clipPath id="clip1_31_605">
<rect width="22" height="43" fill="white" transform="translate(13 5)"/>
</clipPath>
</defs>
</svg>
