<svg width="48" height="48" viewBox="0 0 48 48" fill="none" xmlns="http://www.w3.org/2000/svg">
<g clip-path="url(#clip0_31_600)">
<path d="M14.9999 32.9999C14.9999 30.2419 12.7559 27.9999 9.99988 27.9999C7.24388 27.9999 4.99988 30.2419 4.99988 32.9999C4.99988 35.7579 7.24388 37.9999 9.99988 37.9999C12.7559 37.9999 14.9999 35.7579 14.9999 32.9999ZM6.99988 32.9999C6.99988 31.3459 8.34588 29.9999 9.99988 29.9999C11.6539 29.9999 12.9999 31.3459 12.9999 32.9999C12.9999 34.6539 11.6539 35.9999 9.99988 35.9999C8.34588 35.9999 6.99988 34.6539 6.99988 32.9999ZM28.9999 32.9999C28.9999 30.2419 26.7559 27.9999 23.9999 27.9999C21.2439 27.9999 18.9999 30.2419 18.9999 32.9999C18.9999 35.7579 21.2439 37.9999 23.9999 37.9999C26.7559 37.9999 28.9999 35.7579 28.9999 32.9999ZM20.9999 32.9999C20.9999 31.3459 22.3459 29.9999 23.9999 29.9999C25.6539 29.9999 26.9999 31.3459 26.9999 32.9999C26.9999 34.6539 25.6539 35.9999 23.9999 35.9999C22.3459 35.9999 20.9999 34.6539 20.9999 32.9999ZM23.9999 9.99993C26.7559 9.99993 28.9999 7.75793 28.9999 4.99993C28.9999 2.24193 26.7559 -7.25908e-05 23.9999 -7.25908e-05C21.2439 -7.25908e-05 18.9999 2.24193 18.9999 4.99993C18.9999 7.75793 21.2439 9.99993 23.9999 9.99993ZM23.9999 1.99993C25.6539 1.99993 26.9999 3.34593 26.9999 4.99993C26.9999 6.65393 25.6539 7.99993 23.9999 7.99993C22.3459 7.99993 20.9999 6.65393 20.9999 4.99993C20.9999 3.34593 22.3459 1.99993 23.9999 1.99993ZM42.9999 32.9999C42.9999 30.2419 40.7559 27.9999 37.9999 27.9999C35.2439 27.9999 32.9999 30.2419 32.9999 32.9999C32.9999 35.7579 35.2439 37.9999 37.9999 37.9999C40.7559 37.9999 42.9999 35.7579 42.9999 32.9999ZM34.9999 32.9999C34.9999 31.3459 36.3459 29.9999 37.9999 29.9999C39.6539 29.9999 40.9999 31.3459 40.9999 32.9999C40.9999 34.6539 39.6539 35.9999 37.9999 35.9999C36.3459 35.9999 34.9999 34.6539 34.9999 32.9999ZM46.6239 1.78193L33.8159 12.0279C33.2559 12.4759 32.6439 12.8519 31.9999 13.1519V26.9999C31.9999 27.5519 31.5519 27.9999 30.9999 27.9999C30.4479 27.9999 29.9999 27.5519 29.9999 26.9999V13.8139C29.4079 13.9359 28.8019 13.9999 28.1939 13.9999H19.8079C19.1979 13.9999 18.5939 13.9359 18.0019 13.8139V26.9999C18.0019 27.5519 17.5539 27.9999 17.0019 27.9999C16.4499 27.9999 16.0019 27.5519 16.0019 26.9999V13.1519C15.3579 12.8519 14.7459 12.4759 14.1859 12.0279L1.37588 1.78193C0.945881 1.43593 0.875881 0.807927 1.21988 0.375927C1.56588 -0.0540726 2.19588 -0.122073 2.62588 0.219927L15.4339 10.4659C16.6719 11.4559 18.2239 12.0019 19.8079 12.0019H28.1939C29.7779 12.0019 31.3299 11.4579 32.5679 10.4659L45.3759 0.217927C45.8079 -0.126073 46.4359 -0.0560726 46.7819 0.373927C47.1259 0.805927 47.0559 1.43393 46.6259 1.77993L46.6239 1.78193ZM45.9879 46.8559C46.0679 47.4019 45.6899 47.9099 45.1439 47.9899C45.0959 47.9959 45.0459 47.9999 44.9979 47.9999C44.5099 47.9999 44.0819 47.6419 44.0099 47.1439C43.5799 44.2099 40.9959 41.9999 37.9999 41.9999C35.0039 41.9999 32.4179 44.2099 31.9899 47.1439C31.9899 47.1439 31.9979 47.9999 30.9999 47.9999C30.0019 47.9999 30.0159 47.1699 30.0119 47.1459C29.5819 44.2119 26.9979 42.0019 24.0019 42.0019C21.0059 42.0019 18.4199 44.2119 17.9919 47.1459C17.9919 47.1459 17.9019 48.0019 17.0019 48.0019C16.1019 48.0019 16.0499 47.1719 16.0139 47.1479C15.5839 44.2139 12.9999 42.0039 10.0039 42.0039C7.00788 42.0039 4.42188 44.2139 3.99388 47.1479C3.91388 47.6939 3.40588 48.0539 2.85988 47.9939C2.31388 47.9139 1.93588 47.4059 2.01588 46.8599C2.58788 42.9519 6.02188 40.0039 10.0059 40.0039C12.9519 40.0039 15.5959 41.6159 17.0059 44.0359C18.4159 41.6159 21.0599 40.0039 24.0059 40.0039C26.9519 40.0039 29.5959 41.6159 31.0059 44.0359C32.4159 41.6159 35.0599 40.0039 38.0059 40.0039C41.9879 40.0039 45.4219 42.9519 45.9959 46.8599L45.9879 46.8559Z" fill="white"/>
</g>
<g clip-path="url(#clip1_31_600)">
<g clip-path="url(#clip2_31_600)">
<path d="M14.9999 32.9999C14.9999 30.2419 12.7559 27.9999 9.99988 27.9999C7.24388 27.9999 4.99988 30.2419 4.99988 32.9999C4.99988 35.7579 7.24388 37.9999 9.99988 37.9999C12.7559 37.9999 14.9999 35.7579 14.9999 32.9999ZM6.99988 32.9999C6.99988 31.3459 8.34588 29.9999 9.99988 29.9999C11.6539 29.9999 12.9999 31.3459 12.9999 32.9999C12.9999 34.6539 11.6539 35.9999 9.99988 35.9999C8.34588 35.9999 6.99988 34.6539 6.99988 32.9999ZM28.9999 32.9999C28.9999 30.2419 26.7559 27.9999 23.9999 27.9999C21.2439 27.9999 18.9999 30.2419 18.9999 32.9999C18.9999 35.7579 21.2439 37.9999 23.9999 37.9999C26.7559 37.9999 28.9999 35.7579 28.9999 32.9999ZM20.9999 32.9999C20.9999 31.3459 22.3459 29.9999 23.9999 29.9999C25.6539 29.9999 26.9999 31.3459 26.9999 32.9999C26.9999 34.6539 25.6539 35.9999 23.9999 35.9999C22.3459 35.9999 20.9999 34.6539 20.9999 32.9999ZM23.9999 9.99993C26.7559 9.99993 28.9999 7.75793 28.9999 4.99993C28.9999 2.24193 26.7559 -7.25908e-05 23.9999 -7.25908e-05C21.2439 -7.25908e-05 18.9999 2.24193 18.9999 4.99993C18.9999 7.75793 21.2439 9.99993 23.9999 9.99993ZM23.9999 1.99993C25.6539 1.99993 26.9999 3.34593 26.9999 4.99993C26.9999 6.65393 25.6539 7.99993 23.9999 7.99993C22.3459 7.99993 20.9999 6.65393 20.9999 4.99993C20.9999 3.34593 22.3459 1.99993 23.9999 1.99993ZM42.9999 32.9999C42.9999 30.2419 40.7559 27.9999 37.9999 27.9999C35.2439 27.9999 32.9999 30.2419 32.9999 32.9999C32.9999 35.7579 35.2439 37.9999 37.9999 37.9999C40.7559 37.9999 42.9999 35.7579 42.9999 32.9999ZM34.9999 32.9999C34.9999 31.3459 36.3459 29.9999 37.9999 29.9999C39.6539 29.9999 40.9999 31.3459 40.9999 32.9999C40.9999 34.6539 39.6539 35.9999 37.9999 35.9999C36.3459 35.9999 34.9999 34.6539 34.9999 32.9999ZM46.6239 1.78193L33.8159 12.0279C33.2559 12.4759 32.6439 12.8519 31.9999 13.1519V26.9999C31.9999 27.5519 31.5519 27.9999 30.9999 27.9999C30.4479 27.9999 29.9999 27.5519 29.9999 26.9999V13.8139C29.4079 13.9359 28.8019 13.9999 28.1939 13.9999H19.8079C19.1979 13.9999 18.5939 13.9359 18.0019 13.8139V26.9999C18.0019 27.5519 17.5539 27.9999 17.0019 27.9999C16.4499 27.9999 16.0019 27.5519 16.0019 26.9999V13.1519C15.3579 12.8519 14.7459 12.4759 14.1859 12.0279L1.37588 1.78193C0.945881 1.43593 0.875881 0.807927 1.21988 0.375927C1.56588 -0.0540726 2.19588 -0.122073 2.62588 0.219927L15.4339 10.4659C16.6719 11.4559 18.2239 12.0019 19.8079 12.0019H28.1939C29.7779 12.0019 31.3299 11.4579 32.5679 10.4659L45.3759 0.217927C45.8079 -0.126073 46.4359 -0.0560726 46.7819 0.373927C47.1259 0.805927 47.0559 1.43393 46.6259 1.77993L46.6239 1.78193ZM45.9879 46.8559C46.0679 47.4019 45.6899 47.9099 45.1439 47.9899C45.0959 47.9959 45.0459 47.9999 44.9979 47.9999C44.5099 47.9999 44.0819 47.6419 44.0099 47.1439C43.5799 44.2099 40.9959 41.9999 37.9999 41.9999C35.0039 41.9999 32.4179 44.2099 31.9899 47.1439C31.9899 47.1439 31.9979 47.9999 30.9999 47.9999C30.0019 47.9999 30.0159 47.1699 30.0119 47.1459C29.5819 44.2119 26.9979 42.0019 24.0019 42.0019C21.0059 42.0019 18.4199 44.2119 17.9919 47.1459C17.9919 47.1459 17.9019 48.0019 17.0019 48.0019C16.1019 48.0019 16.0499 47.1719 16.0139 47.1479C15.5839 44.2139 12.9999 42.0039 10.0039 42.0039C7.00788 42.0039 4.42188 44.2139 3.99388 47.1479C3.91388 47.6939 3.40588 48.0539 2.85988 47.9939C2.31388 47.9139 1.93588 47.4059 2.01588 46.8599C2.58788 42.9519 6.02188 40.0039 10.0059 40.0039C12.9519 40.0039 15.5959 41.6159 17.0059 44.0359C18.4159 41.6159 21.0599 40.0039 24.0059 40.0039C26.9519 40.0039 29.5959 41.6159 31.0059 44.0359C32.4159 41.6159 35.0599 40.0039 38.0059 40.0039C41.9879 40.0039 45.4219 42.9519 45.9959 46.8599L45.9879 46.8559Z" fill="#FAFF00"/>
</g>
</g>
<defs>
<clipPath id="clip0_31_600">
<rect width="48" height="48" fill="white"/>
</clipPath>
<clipPath id="clip1_31_600">
<rect width="48" height="20" fill="white" transform="translate(0 28)"/>
</clipPath>
<clipPath id="clip2_31_600">
<rect width="48" height="48" fill="white"/>
</clipPath>
</defs>
</svg>
