<svg width="48" height="48" viewBox="0 0 48 48" fill="none" xmlns="http://www.w3.org/2000/svg">
<g clip-path="url(#clip0_35_17014)">
<path d="M36.414 46L25 34.586V12.414L28.246 9.168C29.036 9.692 29.982 10 31 10C33.758 10 36 7.758 36 5C36 2.242 33.758 0 31 0C28.242 0 26 2.242 26 5C26 6.018 26.308 6.962 26.832 7.754L17.292 17.294L18.706 18.708L22.998 14.416V34.588L11.584 46.002H0V48.002H48V46.002L36.414 46ZM31 2C32.654 2 34 3.346 34 5C34 6.654 32.654 8 31 8C29.346 8 28 6.654 28 5C28 3.346 29.346 2 31 2ZM33.586 46H25V37.414L33.586 46ZM23 37.414V46H14.414L23 37.414Z" fill="white"/>
</g>
<g clip-path="url(#clip1_35_17014)">
<path d="M36.414 46L25 34.586V12.414L28.246 9.168C29.036 9.692 29.982 10 31 10C33.758 10 36 7.758 36 5C36 2.242 33.758 0 31 0C28.242 0 26 2.242 26 5C26 6.018 26.308 6.962 26.832 7.754L17.292 17.294L18.706 18.708L22.998 14.416V34.588L11.584 46.002H0V48.002H48V46.002L36.414 46ZM31 2C32.654 2 34 3.346 34 5C34 6.654 32.654 8 31 8C29.346 8 28 6.654 28 5C28 3.346 29.346 2 31 2ZM33.586 46H25V37.414L33.586 46ZM23 37.414V46H14.414L23 37.414Z" fill="#FAFF00"/>
</g>
<defs>
<clipPath id="clip0_35_17014">
<rect width="48" height="48" fill="white"/>
</clipPath>
<clipPath id="clip1_35_17014">
<rect width="48" height="14" fill="white" transform="translate(0 34)"/>
</clipPath>
</defs>
</svg>
