<svg width="48" height="48" viewBox="0 0 48 48" fill="none" xmlns="http://www.w3.org/2000/svg">
<g clip-path="url(#clip0_31_608)">
<path d="M38 13.9998C40.206 13.9998 42 12.2058 42 9.99979C42 7.79379 40.206 5.99979 38 5.99979C35.794 5.99979 34 7.79379 34 9.99979C34 12.2058 35.794 13.9998 38 13.9998ZM38 7.99979C39.104 7.99979 40 8.89579 40 9.99979C40 11.1038 39.104 11.9998 38 11.9998C36.896 11.9998 36 11.1038 36 9.99979C36 8.89579 36.896 7.99979 38 7.99979ZM30.978 17.1058L38 23.6198L45.07 17.0598C46.958 15.1738 48 12.6618 48 9.98979C48 7.31779 46.958 4.80579 45.07 2.91779C43.182 1.02979 40.672 -0.012207 38 -0.012207C35.328 -0.012207 32.818 1.02779 30.93 2.91579C29.042 4.80379 28 7.31579 28 9.98779C28 12.6598 29.048 15.1798 30.978 17.1058ZM32.344 4.32979C33.854 2.81979 35.864 1.98779 38 1.98779C40.136 1.98779 42.146 2.81979 43.656 4.32979C45.166 5.83979 46 7.85179 46 9.98779C46 12.1238 45.168 14.1338 43.684 15.6178L38 20.8918L32.366 15.6658C30.84 14.1418 30 12.1258 30 9.98779C30 7.84979 30.832 5.84179 32.344 4.32979ZM46 21.6498V31.9998H31.414L20 20.5858V1.99979H26.512C26.984 1.32579 28.168 0.029793 28.2 -0.000207031H5C2.244 -0.000207031 0 2.24179 0 4.99979V47.9998H48V19.7738C47.964 19.8098 46 21.6498 46 21.6498ZM5 1.99979H18V20.3818L2 28.3818V4.99979C2 3.34579 3.346 1.99979 5 1.99979ZM2 30.6178L18.802 22.2158L29.704 33.1178L20.786 45.9998H2V30.6178ZM23.216 45.9998L31.524 33.9998H46V45.9998H23.216Z" fill="white"/>
</g>
<g clip-path="url(#clip1_31_608)">
<path d="M38 13.9998C40.206 13.9998 42 12.2058 42 9.99979C42 7.79379 40.206 5.99979 38 5.99979C35.794 5.99979 34 7.79379 34 9.99979C34 12.2058 35.794 13.9998 38 13.9998ZM38 7.99979C39.104 7.99979 40 8.89579 40 9.99979C40 11.1038 39.104 11.9998 38 11.9998C36.896 11.9998 36 11.1038 36 9.99979C36 8.89579 36.896 7.99979 38 7.99979ZM30.978 17.1058L38 23.6198L45.07 17.0598C46.958 15.1738 48 12.6618 48 9.98979C48 7.31779 46.958 4.80579 45.07 2.91779C43.182 1.02979 40.672 -0.012207 38 -0.012207C35.328 -0.012207 32.818 1.02779 30.93 2.91579C29.042 4.80379 28 7.31579 28 9.98779C28 12.6598 29.048 15.1798 30.978 17.1058ZM32.344 4.32979C33.854 2.81979 35.864 1.98779 38 1.98779C40.136 1.98779 42.146 2.81979 43.656 4.32979C45.166 5.83979 46 7.85179 46 9.98779C46 12.1238 45.168 14.1338 43.684 15.6178L38 20.8918L32.366 15.6658C30.84 14.1418 30 12.1258 30 9.98779C30 7.84979 30.832 5.84179 32.344 4.32979ZM46 21.6498V31.9998H31.414L20 20.5858V1.99979H26.512C26.984 1.32579 28.168 0.029793 28.2 -0.000207031H5C2.244 -0.000207031 0 2.24179 0 4.99979V47.9998H48V19.7738C47.964 19.8098 46 21.6498 46 21.6498ZM5 1.99979H18V20.3818L2 28.3818V4.99979C2 3.34579 3.346 1.99979 5 1.99979ZM2 30.6178L18.802 22.2158L29.704 33.1178L20.786 45.9998H2V30.6178ZM23.216 45.9998L31.524 33.9998H46V45.9998H23.216Z" fill="#FAFF00"/>
</g>
<defs>
<clipPath id="clip0_31_608">
<rect width="48" height="48" fill="white"/>
</clipPath>
<clipPath id="clip1_31_608">
<rect x="28" width="20" height="24" rx="10" fill="white"/>
</clipPath>
</defs>
</svg>
